<?xml version="1.0" encoding="utf-8"?>
<!-- Generator: Adobe Illustrator 24.3.0, SVG Export Plug-In . SVG Version: 6.00 Build 0)  -->
<svg version="1.1" id="Layer_1" xmlns="http://www.w3.org/2000/svg" xmlns:xlink="http://www.w3.org/1999/xlink" x="0px" y="0px"
	 viewBox="0 0 2445.3 734.7" style="enable-background:new 0 0 2445.3 734.7;" xml:space="preserve">
<style type="text/css">
	.st0{fill:#201e1e;}
</style>
<g>
	<path class="st0" d="M517.8,74.4c17.7-44.5,48.8-69.9,97.9-70.7c50-0.8,79.8,26.6,99.1,70.9c1.8-3.2,3.2-5.2,4.2-7.5
		c31.6-70.9,119.3-78.6,168-41.7c22.4,16.9,34.1,39.7,37.3,66.9c1.4,11.7,2,23.6,2.2,35.5c0,92.7,0,185.4-0.2,278.3
		c0,15.9-4.4,20.6-20.6,20.6c-21.4,0-42.7,0-64.1,0c-14.1,0-18.9-4.8-18.9-19.1c0-77,0.2-153.9,0.4-230.9c0-11.1-0.2-22.4-1.2-33.4
		c-2.8-37.5-39.5-55.2-71.3-34.9c-17.1,10.9-23.6,27.8-25.2,46.7c-1.2,13.1-1.8,26.2-2,39.3c-0.2,70.3,0,140.6,0,211.2
		c0,16.9-4,21-20.8,21c-20.1,0-40.1-0.4-60.2,0.2c-14.3,0.4-22.4-2.6-22.4-21.8c0.6-75.6,0.4-151.3,0.2-226.9
		c0-13.7-1-27.6-3.8-41.1c-5.8-29.6-28-42.7-57.2-35.7c-12.7,3-22.6,10.3-27.4,22.2c-4.4,11.1-7.9,23-9.7,34.9
		c-1.8,12.7-1.8,25.6-2,38.3c-0.2,69.7,0,139.4,0,209.1c0,16.9-4,20.8-21,20.8c-21,0-42.1,0-63.1,0c-14.3,0-18.9-4.6-18.9-18.7
		c0-125.5,0-251.3,0-376.8c0-14.5,4-18.7,18.7-18.7c20.4-0.2,40.7-0.2,61.3,0c14.1,0,18.5,4.6,18.5,19.1c0,14.1,0,28.2,0,42.3
		C516.6,73.8,517.2,74.2,517.8,74.4z"/>
	<path class="st0" d="M1230.4,377.3c-8.9,7.9-16.9,15.5-25.4,22.4c-42.9,34.5-91.5,39.1-142.5,24.6c-28.6-8.1-49.6-27.8-59.6-56
		c-17.3-48-14.5-94.5,16.7-136.6c21-28.2,51-42.7,84.2-51.2c30.4-7.9,61.5-10.5,92.5-14.1c6.2-0.6,12.3-1.4,19.3-2.4
		c0.2-17.5,1.6-35.1-3.4-52c-6.2-21-22.4-29.8-42.9-32c-32.2-3.4-57.2,13.5-66.5,44.5c-3.6,12.3-7.7,15.3-19.7,13.9
		c-21-2.2-41.9-4.4-62.7-7.1c-13.3-1.6-16.9-7.3-14.1-20.1c10.9-48.8,40.5-81,87-97.5c48.8-17.3,98.5-18.3,148.1-2.8
		c17.3,5.4,33.2,14.1,46.7,26.8c18.3,17.1,28,38.7,31,63.3c1.4,12.1,2,24.2,2.2,36.5c0.2,47.8,0.4,95.3,0,143.1
		c-0.2,24.4,6.2,45.9,21.2,65.1c3.2,4.2,6.4,8.5,9.1,12.9c4.2,7.5,3.2,12.9-3,18.5c-18.3,15.9-36.7,32-55.2,47.8
		c-8.1,6.9-14.7,6.2-23-0.6c-14.3-11.9-26-26-35.9-41.7C1233.1,380.5,1231.9,379.1,1230.4,377.3z M1215.7,225.8
		c-20.8-2.4-50.8,1.8-69.3,9.3c-37.5,15.1-54.2,54.8-39.1,92.7c8.7,21.8,29.6,32.6,52.6,27c19.9-4.8,33-17.9,42.5-35.3
		C1218.8,289.8,1214.7,257.8,1215.7,225.8z"/>
	<path class="st0" d="M238.3,376.9c-5.6,5.2-10.7,9.9-15.7,14.7c-40.3,38.3-88.9,46.9-141,36.3c-40.1-8.3-65.7-34.5-76.4-74.1
		C-1.9,327-1.9,299.8,6,273c12.5-42.1,41.1-69.3,81.4-84.8c26-10.1,53.2-14.3,80.6-17.5c17.9-2.2,35.9-4,55-6.2
		c0.2-20.1,2.4-40.3-6.2-59c-8.3-17.9-24.4-24.2-42.7-25.2c-28.6-1.6-57.2,12.9-64.1,45.1c-2.4,11.3-7.5,14.7-18.1,13.5
		c-21.6-2.2-43.1-4.6-64.7-7.3c-12.7-1.6-16.3-7.1-13.7-19.5c10.7-49.2,40.7-81.8,87.4-98.3C149.7-3.5,199.4-4.3,249,11.2
		c15.5,4.8,29.6,12.3,42.1,22.8c26.2,22,36.3,51.2,36.7,83.8c0.8,52.6,1,105.2,0.4,157.8c-0.4,27.8,6.4,52.6,24.4,73.9
		c0.4,0.4,0.8,1,1.2,1.6c10.7,14.7,10.3,18.5-3.4,30.2c-15.9,13.7-31.8,27.6-47.8,41.1c-10.7,9.1-16.9,9.5-26.6,0
		c-10.5-10.5-19.7-21.8-29.4-33C244,385.7,241.5,381.3,238.3,376.9z M222.4,225.6c-7.9,0-15.9-0.4-24,0
		c-17.5,1.2-34.5,4.4-50.4,12.1c-18.9,9.1-32,23.4-35.3,44.3c-1.8,11.5-2.4,23.8-0.4,35.1c6,33.6,38.1,48.4,68.3,32.6
		c12.9-6.6,22.4-17.1,29.2-29.8c7.3-13.5,11.9-27.8,12.3-43.1C222.8,260,222.4,243.1,222.4,225.6z"/>
	<path class="st0" d="M2234.5,80.3c4-8.1,7.9-16.5,12.3-24.4c15.1-26.8,36.7-45.5,67.9-50.2c45.9-7.1,85.8,5.8,109.8,42.5
		c10.3,15.7,15.1,33.6,16.9,52c2,19.5,3.4,39.3,3.6,59c0.4,82.6,0.2,165,0.2,247.6c0,14.7-4.6,19.5-19.3,19.5c-21.8,0-43.3,0-65.1,0
		c-14.7,0-19.3-4.6-19.3-19.5c0-77.6,0.2-155.1-0.2-232.7c0-13.3-1.6-27-4.4-40.1c-3.8-17.9-13.9-31.4-33.4-34.5
		c-20.1-3.2-36.3,4-47.8,20.8c-9.3,13.3-13.5,28.4-15.3,44.3c-1.6,14.7-2.2,29.4-2.2,44.3c-0.2,65.5,0,130.8-0.2,196.3
		c0,17.1-4.2,21.4-21.8,21.4c-19.7,0-39.5,0-59.2,0c-18.9,0-22.6-3.6-22.6-22.4c0-103.6,0-207.1-0.2-310.7c0-21,0-42.1,0-63.1
		c0-13.9,4.4-18.1,18.3-18.3c20.8-0.2,41.5,0.2,62.1-0.2c10.3-0.2,18.1,4.6,17.5,18.1c-0.8,16.7-0.2,33.4-0.2,50.2
		C2233.3,80.3,2233.9,80.3,2234.5,80.3z"/>
	<path class="st0" d="M2077.7,233.4c-0.2,38.9-10.9,87.4-40.3,130.6c-57,83.4-162.8,87.4-225.1,41.1c-31.2-23.2-50.6-54.8-62.7-91.1
		c-14.3-42.7-17.1-86.8-12.7-131.4c3.4-35.5,12.5-69.1,30.8-99.9c30.4-51.4,75.6-78.4,135.6-78.6C1974,3.7,2023,37.7,2053,100.4
		C2071.3,138.5,2077.5,179.2,2077.7,233.4z M1845.6,221.5c0.8,14.5,1.4,28.8,2.4,43.3c0.4,5.6,1,11.1,2,16.5
		c2.8,17.5,6.6,34.9,16.1,50.4c7.9,12.7,18.5,21.2,33.9,22.8c21.8,2.2,39.9-7.9,50.6-28.6c8.5-16.5,12.1-34.7,13.9-53
		c3.4-35.5,3-70.9-0.2-106.2c-1.6-18.3-4.6-36.5-11.7-53.6c-7.3-17.9-20.4-28.4-40.1-30c-21.4-1.8-38.5,5-48.8,24.2
		c-5.2,9.7-9.1,20.4-11.7,31.2C1845.4,165.7,1845.8,193.7,1845.6,221.5z"/>
	<path class="st0" d="M989.9,734.7c-25.6-1-51.2-1-76.8-3.2c-66.7-5.6-132.4-17.5-196.9-36.7C605.8,662,504.6,611,413,541.3
		c-20.6-15.7-40.1-32.8-60-49.6c-7.1-5.8-8.7-11.3-5.6-15.9c3.6-5.4,8.9-6,17.5-1.4c30.6,15.9,60.6,32.6,91.7,47.6
		c70.1,33.6,142.9,60,218.2,78.8c43.1,10.9,86.8,19.7,130.8,27.4c30.2,5.4,61.1,7.5,91.7,10.7c41.5,4.4,83.2,6.4,124.9,5.2
		c29.8-0.8,59.6-3.2,89.3-5.2c81.4-5.8,161-21.8,239.4-43.7c46.5-13.1,91.9-29,136.6-47.4c5.2-2.2,10.3-4.4,15.7-5.4
		c14.5-2.6,26,8.5,21.4,20.8c-1.6,4.6-5.6,9.1-9.9,11.9c-21.6,14.5-42.9,29.2-65.5,42.1c-68.5,39.3-141.8,66.7-218.2,86.2
		c-39.1,10.1-78.6,17.5-118.7,22.8C1071.9,731.5,1031.2,734.5,989.9,734.7z"/>
	<path class="st0" d="M1558.5,93.6c-6,0-9.7,0-13.3,0c-38.1,0-76.4,0-114.4,0c-12.3,0-16.7-4.4-16.9-16.5c-0.2-16.7-0.2-33.4,0-50.4
		c0.2-10.7,4.8-15.5,15.5-16.1c2-0.2,4,0,5.8,0c78,0,155.8,0,233.7,0c3,0,6-0.2,8.9,0.2c7.5,1.2,12.1,5.6,12.1,13.1
		c0.2,16.5,1.4,33-0.4,49.2c-1,8.5-6.6,16.9-11.7,24.4c-16.7,24.8-34.3,49.2-51.4,73.5c-25.6,36.7-51.4,73.1-77,109.8
		c-1.8,2.6-3.6,5.4-6.6,9.9c5.6,0,9.7,0,13.7,0c42.7,1,84.2,7.7,122.9,27.6c12.9,6.6,18.9,16.1,18.3,30.6c-0.6,16.3,0,32.8-0.2,49.4
		c-0.2,15.3-8.7,20.4-22.8,13.7c-85-39.7-169.9-39.5-254.7,0.8c-11.7,5.6-20.4,0.6-20.6-12.5c-0.2-21.4-0.2-42.7,0.2-64.1
		c0.2-12.5,5-23.6,12.3-33.6c45.5-65.1,91.1-130.4,136.6-195.6C1551.6,103.4,1554.4,99.4,1558.5,93.6z"/>
	<path class="st0" d="M1510.5,491.7c-25.8,2.4-51.6,4.6-77.4,7.1c-7.5,0.6-14.9,1.8-22.6,2c-3,0-7.7-1.4-9.1-3.6
		c-2.4-3.8,0.6-7.7,3.8-10.1c5-3.8,10.1-7.5,15.5-10.5c26-14.7,54-24,83.6-27c18.5-2,37.3-3.8,55.8-3.6c20.6,0.2,41.3,2.4,61.1,9.3
		c14.7,5,17.9,9.7,18.3,25.2c1,38.9-9.3,75.4-24,110.6c-12.7,30.4-30,57.6-54.2,80.2c-3.2,3.2-7.1,6-10.9,8.5
		c-3,1.8-7.3,3.6-9.7-0.2c-1.4-2.2-1.4-6.2-0.4-8.9c3.2-9.3,6.9-18.3,10.5-27.6c11.1-29.2,22-58.4,28.2-89.1c2-9.9,2.8-20.1,3-30.2
		c0.2-13.5-5.4-20.6-18.1-24.8C1546.8,492.9,1528.7,492.5,1510.5,491.7z"/>
</g>
</svg>
