<?xml version="1.0" encoding="utf-8"?>
<!-- Generator: Adobe Illustrator 24.3.0, SVG Export Plug-In . SVG Version: 6.00 Build 0)  -->
<svg version="1.1" id="Layer_1" xmlns="http://www.w3.org/2000/svg" xmlns:xlink="http://www.w3.org/1999/xlink" x="0px" y="0px"
	 viewBox="0 0 1465.9 516.2" style="enable-background:new 0 0 1465.9 516.2;" xml:space="preserve">
<style type="text/css">
	.st0{fill:#201e1e;}
</style>
<g>
	<path class="st0" d="M276.5,183c26.3,0,52.6,0.2,78.9-0.1c5.8-0.1,8.1,2.3,8.7,8.1c4.5,48.3-1.9,94.3-28.7,134.6
		c-26.4,39.7-63,63.5-108,71.6c-44,7.9-86.6,2.8-126.1-20.4c-59.5-35-95.2-88.2-100.6-161.1C-4.8,141,23.8,81.9,79.9,38
		C117.1,8.9,159.6-2.8,205.4,0.6C244.5,3.5,279.2,18.7,309,46c10.4,9.5,10.3,9.6,0.6,20c-7.6,8.1-15.2,16-22.6,24.2
		c-3.2,3.6-5.6,3.7-9.2,0.3C223.4,40.7,143.1,43.7,94,99.4c-38.4,43.5-48,95.7-28.9,151.8c18.8,55.2,57.5,86.7,112.3,92.8
		c44.3,4.9,83.5-8.7,113.1-46.3c12.1-15.3,17.4-34,20.6-53.5c0.8-5.1-2.1-5.9-5.9-5.8c-15.8,0.1-31.6,0-47.5,0
		c-20.1,0-40.3,0-60.4,0c-7.6,0-7.9-0.4-8-8.6c0-12.7,0-25.4,0-38.1c0-8.4,0.3-8.7,8.5-8.7C223.9,183,250.2,183,276.5,183z"/>
	<path class="st0" d="M1087.5,372c-1.7,1.3-2.5,1.7-3,2.3c-23.9,25.2-52.9,30.7-84.4,23.4c-51.7-12.1-89.2-61.1-92.6-117.7
		c-3.5-57.8,29.8-110.9,77.6-129.8c32.7-13,64.1-10.8,92.9,12.1c1.5,1.2,2.8,2.5,4.2,3.8c1.4,1.3,2.7,2.6,5.6,5.3
		c0-5.6,0.2-9.6,0-13.6c-0.3-5.2,1.4-7.6,6.7-7.5c12.9,0.2,25.9,0.2,38.8,0c4.9-0.1,6.5,2.2,6.4,7.1c-0.1,14,0,28,0,42.1
		c0,60.7,0.2,121.3-0.1,182c-0.1,21.5-2.6,42.8-10.1,63.1c-15.1,41-44,63.3-84.1,69.8c-34,5.5-65.5-1.4-92.9-24.6
		c-14.3-12.1-25.6-27.1-33.6-44.7c-1.9-4.2-1.2-6.1,2.9-7.8c12-5.1,24-10.4,35.8-16c4.6-2.2,6.7-0.9,9,3.7
		c14.7,30.4,42,44.5,73.4,37.8c23.1-4.9,37.8-19.8,44.4-43.9C1088.4,403.7,1088,388.5,1087.5,372z M1091.6,272.1
		c-0.1-14.5-2.1-25.5-7.3-37.7c-12.5-29.3-37.8-42.8-61.5-40.1c-27.4,3.1-46.1,19.5-56.2,46.6c-12.9,34.5-2.8,74.2,23.9,95
		c25,19.5,58.7,16.7,80.5-6.6C1085.8,313.5,1091.3,293.9,1091.6,272.1z"/>
	<path class="st0" d="M506.6,400.4c-64.4,1.6-121.8-53-121.7-129.1c0.1-73,53.1-129.1,121.9-129.1c68.6,0,121.4,56.4,121.3,129.6
		C628.1,346.8,571.5,401.8,506.6,400.4z M573.9,268.9c-0.5-3.9-0.8-10.3-2-16.4c-11-54.8-68.6-76.4-108.8-40.8
		c-27.2,24-31.8,74.4-9.8,107.9c20.4,31.2,62.6,38.6,91.3,16C564.9,319.6,573.3,297.6,573.9,268.9z"/>
	<path class="st0" d="M766.9,400.2c-65.1,1.3-121.6-55.7-120.8-129.9c0.8-72.4,53.4-128.4,122.2-127.9
		c67.1,0.4,120.7,54.3,120.8,128.8C889.3,349.4,830.9,401.9,766.9,400.2z M835.8,271.7c-1.2-7.7-1.8-15.7-3.7-23.2
		c-13-51.4-67.3-71-106.1-38.5c-23.6,19.8-32.2,58.2-20.7,92.3c11.9,35,48.2,54.4,81.5,43.5C815.8,336.3,835,307,835.8,271.7z"/>
	<path class="st0" d="M1306.5,311c7.8,16.9,19.1,28.7,35.4,34.3c29,9.9,58,0.1,76.4-25.8c3.7-5.2,6.2-5.9,11.3-2
		c10.1,7.9,20.7,15,31.2,22.3c3.3,2.3,3.9,4.3,1.3,7.8c-23.9,32.8-54.7,51.5-94.2,52.8c-36.8,1.2-68.1-12-93.2-40.8
		c-17.2-19.7-27-43.3-30.1-69.9c-4.2-35.5,2.5-68.4,21.9-97.9c36.2-55,116.1-69.8,165.6-16.7c15.6,16.8,25.8,37.2,33.3,59.3
		c1.7,5.1-0.9,6.6-4.4,8.1c-23.9,10.5-47.8,21.1-71.7,31.6c-25.8,11.4-51.6,22.8-77.4,34.3C1310.3,309,1308.9,309.8,1306.5,311z
		 M1298,266.1c6.9-3,12.8-5.6,18.6-8.1c27.1-12,54.2-24.1,81.4-35.9c4.7-2,6-4.9,2.3-8.6c-5.2-5.2-10.3-11.1-16.5-14.3
		c-27.5-14.2-62.7-0.8-77.8,28.8C1300.3,239.3,1296.5,251.1,1298,266.1z"/>
	<path class="st0" d="M1169.2,202.8c0-58.3,0-116.5,0-174.8c0-15-0.5-13.3,12.8-13.3c11.1,0,22.2,0.2,33.3-0.1
		c5.4-0.1,7.2,2,7.2,7.7c-0.2,20.8-0.1,41.6-0.1,62.4c0,98.6,0,197.1,0,295.7c0,12,0,12-11.5,12c-11.1,0-22.2,0-33.3,0
		c-8,0-8.3-0.3-8.3-8.9C1169.2,323.3,1169.2,263.1,1169.2,202.8z"/>
</g>
</svg>
