<?xml version="1.0" encoding="utf-8"?>
<!-- Generator: Adobe Illustrator 24.3.0, SVG Export Plug-In . SVG Version: 6.00 Build 0)  -->
<svg version="1.1" id="Layer_1" xmlns="http://www.w3.org/2000/svg" xmlns:xlink="http://www.w3.org/1999/xlink" x="0px" y="0px"
	 viewBox="0 0 1449.6 307.2" style="enable-background:new 0 0 1449.6 307.2;" xml:space="preserve">
<style type="text/css">
	.st0{fill:#201e1e;}
</style>
<g>
	<path class="st0" d="M144.7,144.8c-48.3,0-95.5,0-144.7,0C0,96.5,0,49,0,0c47.5,0,95.5,0,144.7,0
		C144.7,47.9,144.7,95.5,144.7,144.8z"/>
	<path class="st0" d="M306.3,144.4c-47.6,0-94.2,0-142.1,0c0-47.6,0-94.6,0-143.2c46.9,0,93.9,0,142.1,0
		C306.3,48.5,306.3,96,306.3,144.4z"/>
	<path class="st0" d="M606.9,243.7c-9.4,0-17.5,0-27.4,0c0-48.4,0-96.4,0-144.5c-1-0.2-2-0.3-3.1-0.5
		c-18.9,48.1-37.7,96.1-56.8,144.7c-7.5,0-14.4,0-22.7,0c-19.2-48-38.3-96-57.5-144c-0.7,0-1.4,0.1-2,0.1c0,47.4,0,94.9,0,143.5
		c-9.5,0-17.2,0-26,0c0-60,0-119.4,0-179.8c14.2,0,27.7,0,43.2,0c17.7,45.3,35.6,91.1,54.7,139.8c19.2-48.3,37.5-94.2,55.7-140
		c14.6,0,27.7,0,41.9,0C606.9,123.3,606.9,182.6,606.9,243.7z"/>
	<path class="st0" d="M1449.6,136.4c-10.8,0.9-19.7,1.7-29.8,2.5c0,23.7-0.8,46.1,0.3,68.3c0.7,13.9,8.2,17.3,29.4,16
		c0,6.4,0,12.7,0,18.9c-32.2,15.6-58.3,0.3-59.1-34.8c-0.5-22.3-0.1-44.7-0.1-68.4c-16.6,0-31.5,0-48.9,0c0,34.7,0,68.9,0,104.3
		c-10.2,0-18.1,0-28.1,0c0-34.7,0-69,0-104.1c-8.4-1-14.8-1.8-22-2.6c0-6.7,0-13.1,0-21c6-0.7,12.3-1.3,20.8-2.3
		c0.4-21.1-1.8-43.8,19.8-57.1c12.8-7.9,26.8-8.7,42.9-5.1c0.4,6.7,0.8,13.6,1.1,17.8c-11.2,4.5-23.8,6-29.7,13
		c-5.7,6.9-4.6,19.5-6.8,31.3c18.5,0,33.5,0,49.9,0c0.6-9.7,1.1-18.6,1.6-28.5c8.8-2.8,17.3-5.5,28-8.9c0,13.2,0,24.7,0,37.5
		c11,0.8,20.4,1.4,30.6,2.2C1449.6,122.5,1449.6,128.8,1449.6,136.4z"/>
	<path class="st0" d="M1284.7,178.7c0,42.2-25.8,68.6-67,68.7c-41.9,0.1-66.6-24.6-66.5-66.6c0-43.7,26-69.8,69.5-69.6
		C1260.9,111.5,1284.7,136.5,1284.7,178.7z M1254.8,179.6c0.1-27.7-14-44.9-36.7-44.9c-21.3,0.1-35.8,16.5-37.1,41.9
		c-1.3,26.4,11.5,44.9,32.8,47.1C1239.5,226.5,1254.8,210.1,1254.8,179.6z"/>
	<path class="st0" d="M1031.8,177.8c0.1,43.7-24.8,69.6-67.2,69.7c-41.5,0.1-66.1-25.1-65.9-67.2c0.3-43.3,25.4-68.6,68.4-68.9
		C1007.9,111.1,1031.7,135.5,1031.8,177.8z M1002.1,179.6c0-26.6-12.4-43.1-33.5-44.7c-21.3-1.6-37.3,13.4-39.6,37.3
		c-2.8,29.3,9.7,49.4,32.2,51.7C987.3,226.4,1002.1,210.4,1002.1,179.6z"/>
	<path class="st0" d="M1050.6,241c0-8.6,0-16.5,0-25.4c7.6,2.8,14.1,6.2,20.9,7.5c7.3,1.4,15.3,2.1,22.5,0.6
		c4.4-1,10.1-6.3,10.9-10.5c0.9-4.2-2.3-11.3-6-14c-7.7-5.6-17-8.9-25.6-13.3c-18.9-9.8-25.3-21.1-23-40.3
		c1.9-15.7,14.3-28.2,32.4-32.2c15.2-3.3,30.1-2.6,44.8,4.1c0,7.9,0,15.2,0,22.7c-9.7-2.2-18.4-5-27.3-6c-9.1-1-17.9,1.5-20.5,11.8
		c-2.5,9.8,4.6,14.8,12.3,18.7c8.2,4.1,16.7,7.5,24.8,11.9c13.4,7.3,19.2,19.1,18.1,34.3c-1.1,15.3-9.3,25.8-23,31.5
		C1091.6,250.6,1071.3,248.8,1050.6,241z"/>
	<path class="st0" d="M793.3,216.2c0,8.5,0,15.6,0,22.2c-27.5,15.7-64.3,11.2-84-9.7c-20.4-21.7-22.4-63-4.3-89.8
		c17-25.2,53.7-34.3,87.6-21c0,7.5,0,15.4,0,24.7c-23.9-10.7-46.7-13-63.2,11.8c-10.5,15.7-9.1,40.5,1.9,55
		C743.7,225.3,758.9,227.1,793.3,216.2z"/>
	<path class="st0" d="M820.8,243.2c0-43.2,0-84.8,0-127.7c8.9,0,17.3,0,26.7,0c0.7,5.2,1.4,10.5,2.5,19.5
		c10.9-16.7,23.1-26.1,42.8-20.7c0,8.2,0,16.5,0,24.9c-33-1.5-43.8,8.9-44.2,43.3c-0.3,19.8,0,39.7,0,60.6
		C839.2,243.2,830.9,243.2,820.8,243.2z"/>
	<path class="st0" d="M668.1,244.3c-6.9,0-11.9,0.1-16.9,0c-3-0.1-5.9-0.6-10-1.1c0-42.3,0-84.3,0-127.5c8.5,0,17.3,0,27,0
		C668.1,158.5,668.1,200.4,668.1,244.3z"/>
	<path class="st0" d="M654.7,91.7c-10.6,0-18-6.9-17.4-16.7c0.6-10.3,6.9-15.5,16.7-16.2c9.9-0.8,18.1,6.8,18.3,16.2
		C672.6,84.6,665.2,91.7,654.7,91.7z"/>
	<path class="st0" d="M144.7,307.2c-48.3,0-95.5,0-144.7,0c0-48.3,0-95.8,0-144.8c47.5,0,95.5,0,144.7,0
		C144.7,210.3,144.7,257.9,144.7,307.2z"/>
	<path class="st0" d="M306.3,306.8c-47.6,0-94.2,0-142.1,0c0-47.6,0-94.6,0-143.2c46.9,0,93.9,0,142.1,0
		C306.3,210.9,306.3,258.3,306.3,306.8z"/>
</g>
</svg>
