<?xml version="1.0" encoding="utf-8"?>
<!-- Generator: Adobe Illustrator 25.2.3, SVG Export Plug-In . SVG Version: 6.00 Build 0)  -->
<svg version="1.1" id="Layer_1" xmlns="http://www.w3.org/2000/svg" xmlns:xlink="http://www.w3.org/1999/xlink" x="0px" y="0px"
	 viewBox="0 0 33.1 20" style="enable-background:new 0 0 33.1 20;" xml:space="preserve">
<style type="text/css">
	.st0{fill:#201e1e;}
</style>
<g>
	<path class="st0" d="M5.3,10.1C5.4,10.1,5.4,10.1,5.3,10.1c0.4,0,0.8,0,1.1,0c0.2,0,0.3,0,0.5,0C7,10.1,7,10.1,7,10c0,0,0,0,0-0.1
		c0.2-0.6,0.3-1.2,0.5-1.7c0.3-1,0.6-1.9,0.8-2.9c0-0.1,0.1-0.1,0.2-0.1h0.1c0.1,0,0.1,0,0.1,0.1v0.1c0,0.1,0,0.3,0,0.4
		c0,0.5,0,1,0,1.5c0,0.9,0,1.7-0.1,2.6c0,0.1,0,0.2,0.2,0.2c0.5,0,1,0,1.5,0c0.2,0,0.2,0,0.3-0.2c0.9-3,1.8-6.1,2.7-9.1
		c0.1-0.2,0.1-0.4,0.2-0.6c0-0.1,0-0.1-0.1-0.2l0,0c-0.5,0-1,0-1.5,0c-0.1,0-0.1,0-0.2,0.1c-0.3,1-0.6,2.1-0.9,3.1
		c-0.1,0.4-0.2,0.7-0.3,1.1c0,0.1-0.1,0.1-0.2,0.1c-0.2,0-0.2,0-0.2-0.2c0-0.3,0-0.6,0-0.9c0-0.8,0.1-1.7,0.1-2.5c0-0.2,0-0.4,0-0.7
		c0-0.1,0-0.2-0.1-0.2c-0.6,0-1.1,0-1.7,0c-0.2,0-0.2,0-0.2,0.2c-0.7,2.3-1.3,4.6-2,7C5.8,8.1,5.6,9,5.3,10V10.1z M19.3,10.1
		L19.3,10.1c0.2,0,0.5,0,0.7,0c0.1,0,0.1,0,0.1-0.1s0-0.1,0-0.2c0-0.3,0-0.5-0.1-0.8c0-0.5-0.1-1-0.1-1.6c0-0.7-0.1-1.3-0.1-2
		c0-0.3,0-0.5-0.1-0.8c0-0.1,0-0.3,0.1-0.4l0.1-0.1c0.3-0.5,0.7-0.9,1-1.4c0.6-0.8,1.1-1.6,1.7-2.4l0.1-0.1c0-0.1,0-0.1-0.1-0.1
		c0,0,0,0-0.1,0c-0.4,0-0.8,0-1.3,0c-0.1,0-0.2,0-0.3,0.1c-0.3,0.5-0.7,1-1,1.4s-0.6,0.8-0.8,1.2C19,2.9,19,2.9,18.9,2.9h-0.1
		c-0.1,0-0.1,0-0.1-0.1s0-0.1,0.1-0.2c0.1-0.4,0.3-0.9,0.4-1.3c0.1-0.3,0.2-0.7,0.3-1c0-0.1,0-0.2-0.1-0.2c-0.3,0-0.6,0-0.8,0
		c-0.2,0-0.4,0-0.6,0c-0.1,0-0.2,0-0.2,0.2c-0.9,3.2-1.9,6.4-2.8,9.6V10c0,0.1,0,0.1,0.1,0.1c0.3,0,0.6,0,0.9,0c0.2,0,0.4,0,0.6,0
		c0.1,0,0.1,0,0.2-0.1l0,0c0.4-1.3,0.7-2.5,1.1-3.8C17.9,6.1,18,6,18,5.9c0-0.1,0.1-0.1,0.1-0.1s0,0,0.1,0s0.2,0,0.2,0.2
		c0,0.1,0,0.2,0,0.3c0,0.8,0.1,1.7,0.1,2.5c0,0.4,0,0.7,0,1.1c0,0.1,0,0.2,0.2,0.2C18.8,10.1,19,10.1,19.3,10.1z M12.7,10.1
		L12.7,10.1c0.1,0,0.3,0,0.4,0c0.1,0,0.2,0,0.4,0c0.1,0,0.1,0,0.2-0.1c0,0,0,0,0-0.1c0.9-3.1,1.8-6.3,2.7-9.4c0-0.1,0.1-0.2,0.1-0.3
		s0-0.1-0.1-0.1c0,0,0,0-0.1,0c-0.5,0-1,0-1.5,0c-0.1,0-0.1,0-0.1,0.1c0,0,0,0,0,0.1c-0.9,3.2-1.9,6.4-2.8,9.6V10
		c0,0.1,0,0.1,0.1,0.1C12.2,10.1,12.4,10.1,12.7,10.1z"/>
	<path class="st0" d="M0,15.9c0-0.1,0-0.2,0-0.3c0-0.8,0.2-1.5,0.5-2.2C1,12,1.6,10.8,2.4,9.8c0.5-0.7,1-1.3,1.6-1.9
		C4.3,7.6,4.5,7.3,4.7,7c0,0,0-0.1,0.1-0.1c0,0,0,0,0.1,0c0,0,0,0,0,0.1v0.1C4.5,7.9,4.2,8.7,4.1,9.6C4,10.1,4,10.6,4,11.1
		c0,0.6,0.1,1.3,0.4,1.9c0.2,0.5,0.6,0.9,1,1.2c0.3,0.2,0.6,0.3,0.9,0.3c0.4,0.1,0.8,0,1.2,0c0.8-0.1,1.5-0.3,2.3-0.6
		c2.7-0.8,5.4-1.7,8.2-2.5c1.5-0.4,2.9-0.9,4.4-1.3c0,0,0.1,0,0.1-0.1h-0.1c-0.4,0-0.9,0-1.3,0H21c-0.1,0-0.1,0-0.1-0.1s0-0.1,0-0.2
		c0.1-0.5,0.3-0.9,0.4-1.4c0.8-2.7,1.5-5.4,2.3-8.2V0c0-0.1,0.1-0.1,0.1-0.1h0.1C24.9,0,26,0,27,0h0.1c0,0,0.1,0,0.1,0.1v0.1
		C27.1,0.6,27,1,26.8,1.5c0,0.1-0.1,0.1-0.2,0.1c-0.4,0-0.9,0-1.3,0c-0.1,0-0.2,0-0.2,0c-0.2,0-0.2,0-0.2,0.2
		c-0.1,0.3-0.2,0.6-0.3,0.9c-0.1,0.4-0.2,0.7-0.3,1.1v0.1c0,0.1,0,0.2,0.1,0.2c0.3,0,0.6,0,1,0c0.2,0,0.3,0,0.5,0
		C26,4,26.1,4,26,4.2c-0.1,0.4-0.2,0.8-0.3,1.1c0,0.1-0.1,0.2-0.2,0.2c-0.5,0-1,0-1.5,0l0,0c-0.2,0-0.2,0-0.3,0.2
		c-0.1,0.4-0.2,0.8-0.3,1.1c-0.1,0.4-0.2,0.8-0.4,1.3c0,0,0,0,0,0.1s0,0.1,0.1,0.1h0.1c0.6,0,1.2,0,1.8,0h0.1c0.1,0,0.1,0,0.1,0.1
		v0.1C25.1,8.8,25.1,9,25,9.3h0.1c0.7-0.2,1.5-0.4,2.2-0.7C29.2,8,31.1,7.4,33,6.9h0.1c0,0.1,0,0.1,0,0.2c-0.2,0.1-0.4,0.2-0.6,0.3
		c-1.4,0.7-2.8,1.4-4.1,2.1c-1.9,1-3.8,1.9-5.7,2.9c-1.1,0.5-2.2,1.1-3.3,1.6c-1.9,1-3.8,1.9-5.7,2.9c-1,0.5-2,1-3.1,1.5
		c-1.3,0.6-2.6,1.1-4,1.5c-0.7,0-1.4,0.1-2.1,0.1c0,0,0,0-0.1,0H4.3H4.2c-0.5,0-1-0.1-1.5-0.2c-1.4-0.4-2.6-1.7-2.7-3.5
		C0,16.1,0,16,0,15.9L0,15.9z"/>
	<path class="st0" d="M5.3,10.1c0-0.1,0-0.1,0-0.2C5.6,9,5.8,8.1,6.1,7.2c0.7-2.3,1.3-4.6,2-7C8.1,0,8.1,0,8.3,0C8.9,0,9.4,0,10,0
		c0.1,0,0.1,0,0.1,0.2s0,0.4,0,0.7c0,0.8-0.1,1.7-0.1,2.5c0,0.3,0,0.6,0,0.9c0,0.2,0,0.2,0.2,0.2c0.1,0,0.1,0,0.2-0.1
		c0.1-0.4,0.2-0.7,0.3-1.1c0.3-1,0.6-2.1,0.9-3.1c0-0.1,0-0.1,0.2-0.1c0.5,0,1,0,1.5,0l0,0c0.1,0,0.1,0,0.1,0.2
		c-0.1,0.2-0.1,0.4-0.2,0.6c-0.9,3-1.8,6.1-2.7,9.1c-0.1,0.2-0.1,0.2-0.3,0.2c-0.5,0-1,0-1.5,0c-0.1,0-0.2,0-0.2-0.2
		c0-0.9,0-1.7,0.1-2.6c0-0.5,0-1,0-1.5c0-0.1,0-0.3,0-0.4V5.4c0-0.1,0-0.1-0.1-0.1H8.4c-0.1,0-0.1,0-0.2,0.1c-0.3,1-0.6,1.9-0.8,2.9
		c0,0.5-0.2,1.1-0.3,1.7c0,0,0,0,0,0.1s0,0.1-0.1,0.1c-0.2,0-0.3,0-0.5,0c-0.3,0-0.7,0-1,0C5.4,10.1,5.3,10.1,5.3,10.1z"/>
	<path class="st0" d="M19.3,10.1c-0.2,0-0.5,0-0.7,0c-0.1,0-0.2,0-0.2-0.2c0-0.4,0-0.7,0-1.1c0-0.8-0.1-1.7-0.1-2.5
		c0-0.1,0-0.2,0-0.3c0-0.1,0-0.2-0.2-0.2c0,0,0,0-0.1,0s-0.1,0-0.1,0.1s-0.1,0.2-0.1,0.3c-0.4,1.3-0.7,2.5-1.1,3.8l0,0
		c0,0.1-0.1,0.1-0.2,0.1c-0.2,0-0.4,0-0.6,0c-0.3,0-0.6,0-0.9,0c-0.1,0-0.1,0-0.1-0.1V9.9c0.9-3.2,1.9-6.4,2.8-9.6
		C17.8,0.1,17.9,0,18,0c0.2,0,0.4,0,0.6,0c0.3,0,0.6,0,0.8,0c0.1,0,0.2,0,0.1,0.2c-0.1,0.3-0.2,0.7-0.3,1c-0.1,0.4-0.3,0.9-0.4,1.3
		c0,0.1,0,0.1-0.1,0.2c0,0.1,0,0.1,0.1,0.1h0.1c0.1,0,0.2,0,0.2-0.1C19.5,2.4,19.7,2,20,1.6c0.3-0.5,0.7-1,1-1.4
		C21.1,0.1,21.2,0,21.3,0c0.4,0,0.8,0,1.3,0c0,0,0,0,0.1,0s0.1,0,0.1,0.1c0,0,0,0.1-0.1,0.1C22.1,1,21.6,1.8,21,2.6
		c-0.3,0.5-0.7,0.9-1,1.4l-0.1,0.1c-0.1,0.1-0.1,0.2-0.1,0.4c0,0.3,0,0.5,0.1,0.8c0,0.7,0.1,1.3,0.1,2c0,0.5,0.1,1,0.1,1.6
		c0,0.3,0,0.5,0.1,0.8c0,0.1,0,0.1,0,0.2c0,0.1,0,0.1-0.1,0.1C19.8,10.1,19.5,10.1,19.3,10.1L19.3,10.1z"/>
	<path class="st0" d="M12.7,10.1c-0.2,0-0.5,0-0.7,0c-0.1,0-0.1,0-0.1-0.1V9.9c0.9-3.2,1.9-6.4,2.8-9.6c0,0,0,0,0-0.1
		s0.1-0.1,0.1-0.1c0.5,0,1,0,1.5,0c0,0,0,0,0.1,0s0.1,0,0.1,0.1s-0.1,0.2-0.1,0.3c-0.9,3.1-1.8,6.3-2.7,9.4c0,0,0,0,0,0.1
		s-0.1,0.1-0.2,0.1c-0.1,0-0.2,0-0.4,0C12.9,10.1,12.8,10.1,12.7,10.1L12.7,10.1z"/>
</g>
</svg>
